<svg xmlns="http://www.w3.org/2000/svg" width="538" height="403.073" viewBox="0 0 538 403.073">
  <g id="Logo" transform="translate(1 -4.622)">
    <g id="Formas" transform="translate(-10.833)">
      <g id="Uni達o_1" data-name="Uni達o 1" transform="translate(180.68 3.802)" fill="none">
        <path d="M224.037,234.306,151.982,118.994,79.927,234.306A41.828,41.828,0,1,1,8.983,189.975L113.765,22.289a41.824,41.824,0,0,1,38.218-19.58A41.817,41.817,0,0,1,190.2,22.289L294.981,189.975a41.828,41.828,0,1,1-70.944,44.331Z" stroke="none"/>
        <path d="M 44.41486740112305 235.9735870361328 C 52.70853424072266 235.9733581542969 60.2776985168457 231.7840881347656 64.66230773925781 224.7675323486328 L 136.7169189453125 109.4552536010742 L 151.9817504882813 85.02625274658203 L 167.2466430664063 109.455192565918 L 239.3017578125 224.7672576904297 C 243.6870269775391 231.7848663330078 251.2555389404297 235.9741973876953 259.5475463867188 235.9735870361328 C 263.9872131347656 235.9732513427734 268.3405456542969 234.7192993164063 272.135986328125 232.3478088378906 C 283.2779235839844 225.3852996826172 286.6783142089844 210.6555328369141 279.7164916992188 199.5132446289063 L 174.9349822998047 31.82819557189941 C 170.5499267578125 24.81086158752441 162.9818115234375 20.62141799926758 154.6903076171875 20.62141799926758 L 153.1486511230469 20.67136192321777 L 151.9829711914063 20.74708366394043 L 150.8173065185547 20.67141723632813 L 149.2784729003906 20.62163925170898 C 140.9840393066406 20.62163925170898 133.4141998291016 24.81097221374512 129.0293731689453 31.82797241210938 L 24.24781036376953 199.5131988525391 C 17.28536605834961 210.6555328369141 20.68592071533203 225.3850860595703 31.82736587524414 232.3473052978516 C 35.62442016601563 234.7197570800781 39.97708892822266 235.9736938476563 44.41486740112305 235.9735870361328 M 44.41530609130859 253.9735870361328 C 36.84474182128906 253.9737701416016 29.18292045593262 251.9197082519531 22.28942108154297 247.6125335693359 C 2.699088096618652 235.3706970214844 -3.258911848068237 209.56591796875 8.982921600341797 189.9747009277344 L 113.764533996582 22.2894172668457 C 121.6989059448242 9.592114448547363 135.3334503173828 2.621659517288208 149.2784576416016 2.621659517288208 C 150.1791229248047 2.621659517288208 151.0806579589844 2.65071702003479 151.9824829101563 2.709195137023926 C 152.8852691650391 2.650567054748535 153.7886657714844 2.621406555175781 154.6902923583984 2.621406555175781 C 168.6351165771484 2.621406555175781 182.2651062011719 9.591843605041504 190.1996917724609 22.2894172668457 L 294.9813232421875 189.9747009277344 C 307.2221984863281 209.56591796875 301.2650756835938 235.3706970214844 281.6748046875 247.6125335693359 C 274.7825317382813 251.9189147949219 267.1181335449219 253.9730224609375 259.5488586425781 253.9735870361328 C 245.6026916503906 253.9745788574219 231.9720916748047 247.0043029785156 224.0370330810547 234.3060302734375 L 151.9818115234375 118.9937515258789 L 79.92720031738281 234.3060302734375 C 71.99290466308594 247.0031280517578 58.36011505126953 253.9732513427734 44.41530609130859 253.9735870361328 Z" stroke="none" fill="#fff"/>
      </g>
      <g id="Uni達o_2" data-name="Uni達o 2" transform="translate(377.175 258.596) rotate(180)" fill="none" opacity="0.47">
        <path d="M224.037,234.306,151.982,118.994,79.927,234.306A41.828,41.828,0,1,1,8.983,189.975L113.765,22.289a41.824,41.824,0,0,1,38.218-19.58A41.817,41.817,0,0,1,190.2,22.289L294.981,189.975a41.828,41.828,0,1,1-70.944,44.331Z" stroke="none"/>
        <path d="M 44.41486740112305 235.9735870361328 C 52.70853424072266 235.9733581542969 60.2776985168457 231.7840881347656 64.66230773925781 224.7675323486328 L 136.7169189453125 109.4552536010742 L 151.9817504882813 85.02625274658203 L 167.2466430664063 109.455192565918 L 239.3017578125 224.7672576904297 C 243.6870269775391 231.7848663330078 251.2555389404297 235.9741973876953 259.5475463867188 235.9735870361328 C 263.9872131347656 235.9732513427734 268.3405456542969 234.7192993164063 272.135986328125 232.3478088378906 C 283.2779235839844 225.3852996826172 286.6783142089844 210.6555328369141 279.7164916992188 199.5132446289063 L 174.9349822998047 31.82819557189941 C 170.5499267578125 24.81086158752441 162.9818115234375 20.62141799926758 154.6903076171875 20.62141799926758 L 153.1486511230469 20.67136192321777 L 151.9829711914063 20.74708366394043 L 150.8173065185547 20.67141723632813 L 149.2784729003906 20.62163925170898 C 140.9840393066406 20.62163925170898 133.4141998291016 24.81097221374512 129.0293731689453 31.82797241210938 L 24.24781036376953 199.5131988525391 C 17.28536605834961 210.6555328369141 20.68592071533203 225.3850860595703 31.82736587524414 232.3473052978516 C 35.62442016601563 234.7197570800781 39.97708892822266 235.9736938476563 44.41486740112305 235.9735870361328 M 44.41530609130859 253.9735870361328 C 36.84474182128906 253.9737701416016 29.18292045593262 251.9197082519531 22.28942108154297 247.6125335693359 C 2.699088096618652 235.3706970214844 -3.258911848068237 209.56591796875 8.982921600341797 189.9747009277344 L 113.764533996582 22.2894172668457 C 121.6989059448242 9.592114448547363 135.3334503173828 2.621659517288208 149.2784576416016 2.621659517288208 C 150.1791229248047 2.621659517288208 151.0806579589844 2.65071702003479 151.9824829101563 2.709195137023926 C 152.8852691650391 2.650567054748535 153.7886657714844 2.621406555175781 154.6902923583984 2.621406555175781 C 168.6351165771484 2.621406555175781 182.2651062011719 9.591843605041504 190.1996917724609 22.2894172668457 L 294.9813232421875 189.9747009277344 C 307.2221984863281 209.56591796875 301.2650756835938 235.3706970214844 281.6748046875 247.6125335693359 C 274.7825317382813 251.9189147949219 267.1181335449219 253.9730224609375 259.5488586425781 253.9735870361328 C 245.6026916503906 253.9745788574219 231.9720916748047 247.0043029785156 224.0370330810547 234.3060302734375 L 151.9818115234375 118.9937515258789 L 79.92720031738281 234.3060302734375 C 71.99290466308594 247.0031280517578 58.36011505126953 253.9732513427734 44.41530609130859 253.9735870361328 Z" stroke="none" fill="#fff"/>
      </g>
    </g>
    <text id="web_ssh" data-name="web ssh" transform="translate(268 390.695)" fill="#fff" font-size="74" font-family="Raleway-Bold, Raleway" font-weight="700" letter-spacing="0.45em"><tspan x="-268.065" y="0">WEB SSH</tspan></text>
  </g>
</svg>
